<?xml version="1.0" standalone="no"?>
<!DOCTYPE svg PUBLIC "-//W3C//DTD SVG 20010904//EN"
 "http://www.w3.org/TR/2001/REC-SVG-20010904/DTD/svg10.dtd">
<svg version="1.0" xmlns="http://www.w3.org/2000/svg"
 width="512.000000pt" height="512.000000pt" viewBox="0 0 512.000000 512.000000"
 preserveAspectRatio="xMidYMid meet">
<metadata>
Created by potrace 1.14, written by Peter Selinger 2001-2017
</metadata>
<g transform="translate(0.000000,512.000000) scale(0.100000,-0.100000)"
fill="#000000" stroke="none">
<path d="M0 2560 l0 -2560 2560 0 2560 0 0 2560 0 2560 -2560 0 -2560 0 0
-2560z m1632 776 c152 -33 296 -129 348 -233 28 -56 38 -154 20 -207 -16 -48
-56 -96 -97 -112 -77 -33 -189 -5 -234 57 -20 28 -24 45 -22 94 1 33 3 71 5
84 5 42 -48 65 -162 69 -79 3 -105 0 -152 -18 -98 -37 -165 -124 -199 -260
-22 -86 -19 -406 5 -490 39 -143 117 -241 217 -273 60 -20 174 -22 231 -5 53
16 119 76 156 142 42 73 73 96 131 96 55 0 117 -37 127 -76 34 -134 -134 -344
-325 -405 -93 -30 -264 -37 -364 -15 -188 42 -336 161 -420 337 -25 52 -52
123 -61 159 -61 254 -37 540 61 739 76 154 236 279 405 316 83 18 246 18 330
1z m1132 -27 c25 -19 26 -25 26 -108 0 -103 -11 -120 -85 -129 -36 -4 -44 -8
-40 -21 2 -9 50 -187 105 -396 55 -209 104 -389 109 -400 7 -16 14 -3 35 65
140 440 241 735 261 758 22 26 29 27 127 30 112 4 149 -5 172 -40 8 -13 72
-198 142 -413 70 -214 130 -393 133 -398 4 -4 54 169 111 385 56 216 105 400
107 409 4 13 -6 17 -43 22 -70 7 -84 29 -84 129 0 71 3 81 25 104 l25 25 219
-3 c269 -4 261 0 261 -123 0 -104 -14 -125 -86 -132 l-49 -5 -165 -612 c-143
-528 -169 -615 -192 -638 -26 -27 -30 -28 -137 -28 -107 0 -112 1 -140 28 -24
23 -50 92 -167 450 -76 232 -141 419 -145 415 -4 -5 -21 -53 -39 -108 -17 -55
-79 -245 -137 -423 -124 -384 -108 -362 -266 -362 -111 0 -148 13 -165 57 -10
26 -332 1207 -332 1218 0 3 -13 5 -29 5 -39 0 -81 17 -97 38 -18 23 -18 163
-1 184 27 34 51 37 283 38 219 0 233 -1 258 -21z"/>
</g>
</svg>
